<?xml version="1.0" encoding="UTF-8" standalone="no"?>
<!-- Created with Inkscape (http://www.inkscape.org/) -->

<svg
   width="29.441999mm"
   height="29.441999mm"
   viewBox="0 0 29.441999 29.441999"
   version="1.1"
   id="svg1"
   inkscape:version="1.3 (0e150ed6c4, 2023-07-21)"
   sodipodi:docname="carrinho.svg"
   xmlns:inkscape="http://www.inkscape.org/namespaces/inkscape"
   xmlns:sodipodi="http://sodipodi.sourceforge.net/DTD/sodipodi-0.dtd"
   xmlns="http://www.w3.org/2000/svg"
   xmlns:svg="http://www.w3.org/2000/svg">
  <sodipodi:namedview
     id="namedview1"
     pagecolor="#ffffff"
     bordercolor="#000000"
     borderopacity="0.25"
     inkscape:showpageshadow="2"
     inkscape:pageopacity="0.0"
     inkscape:pagecheckerboard="0"
     inkscape:deskcolor="#d1d1d1"
     inkscape:document-units="mm"
     inkscape:zoom="4.1323288"
     inkscape:cx="4.5978916"
     inkscape:cy="58.078631"
     inkscape:window-width="1920"
     inkscape:window-height="1009"
     inkscape:window-x="-8"
     inkscape:window-y="-8"
     inkscape:window-maximized="1"
     inkscape:current-layer="layer1" />
  <defs
     id="defs1" />
  <g
     inkscape:label="Camada 1"
     inkscape:groupmode="layer"
     id="layer1"
     transform="translate(-159.54385,-141.55209)">
    <path
       id="path1-0-4-7-4"
       style="font-variation-settings:normal;vector-effect:none;fill:#4bc0f0;fill-opacity:1;stroke-width:0.608692;stroke-linecap:round;stroke-linejoin:round;stroke-miterlimit:4;stroke-dasharray:none;stroke-dashoffset:0;stroke-opacity:1;-inkscape-stroke:none;paint-order:markers stroke fill;stop-color:#000000"
       d="m 159.54882,146.30699 h 3e-4 c 0.0396,0.45771 0.40486,0.80811 0.8422,0.808 h 2.8442 c 0.51251,-6e-5 0.97566,0.3211 1.1772,0.8163 l 4.2146,10.3561 c 0.3926,0.96476 1.2876,1.59739 2.2859,1.6158 l 14.1474,0.2607 c 0.48688,0.009 0.88615,-0.40336 0.8862,-0.9151 -0.0819,-0.54788 -0.57087,-0.92226 -1.0922,-0.8362 h -13.2015 c -0.51179,-1.2e-4 -0.9736,-0.32273 -1.1718,-0.8186 l -4.4414,-11.1095 c -0.25688,-0.64241 -0.85532,-1.06027 -1.5184,-1.0602 h -4.2099 c -0.45036,0 -0.80352,0.40636 -0.7628,0.8777 z m 8.4882,1.6867 2.9503,7.2072 c 0.39349,0.96123 1.29368,1.58406 2.2894,1.584 h 10.5402 c 0.99294,-1e-5 1.88784,-0.62938 2.2665,-1.594 l 2.8211,-7.1873 c 0.28608,-0.69156 -0.23325,-1.59394 -1.0151,-1.594 h -18.8599 c -0.77632,-7e-5 -1.29934,0.83469 -0.9925,1.5841 z m 5.5254,13.3475 c -1.6136,0 -2.9217,1.2695 -2.9217,2.8355 0,1.5659 1.3081,2.8355 2.9217,2.8352 1.6135,0 2.9217,-1.2693 2.9217,-2.8352 -2e-4,-1.566 -1.3082,-2.8355 -2.9217,-2.8355 z m 8.78,0.1097 c -1.6134,0 -2.9217,1.2695 -2.9217,2.8355 0,1.566 1.3083,2.8355 2.9217,2.8355 1.6136,-3e-4 2.9217,-1.2695 2.9217,-2.8355 0,-1.566 -1.3081,-2.8354 -2.9217,-2.8355 z"
       sodipodi:nodetypes="ccccccccccccccccccccccccccssccscscsc" />
  </g>
</svg>
