<?xml version="1.0" encoding="UTF-8" standalone="no"?>
<!-- Created with Inkscape (http://www.inkscape.org/) -->

<svg
   width="134.31844mm"
   height="135.46249mm"
   viewBox="0 0 134.31844 135.46249"
   version="1.1"
   id="svg1"
   inkscape:version="1.3 (0e150ed6c4, 2023-07-21)"
   sodipodi:docname="formIcon.svg"
   xmlns:inkscape="http://www.inkscape.org/namespaces/inkscape"
   xmlns:sodipodi="http://sodipodi.sourceforge.net/DTD/sodipodi-0.dtd"
   xmlns="http://www.w3.org/2000/svg"
   xmlns:svg="http://www.w3.org/2000/svg">
  <sodipodi:namedview
     id="namedview1"
     pagecolor="#ffffff"
     bordercolor="#000000"
     borderopacity="0.25"
     inkscape:showpageshadow="2"
     inkscape:pageopacity="0.0"
     inkscape:pagecheckerboard="0"
     inkscape:deskcolor="#d1d1d1"
     inkscape:document-units="mm"
     inkscape:zoom="0.26393991"
     inkscape:cx="-511.48006"
     inkscape:cy="-318.25426"
     inkscape:window-width="1920"
     inkscape:window-height="1009"
     inkscape:window-x="-8"
     inkscape:window-y="-8"
     inkscape:window-maximized="1"
     inkscape:current-layer="layer1" />
  <defs
     id="defs1">
    <inkscape:path-effect
       effect="fillet_chamfer"
       id="path-effect185"
       is_visible="true"
       lpeversion="1"
       nodesatellites_param="F,0,1,1,0,12.555129,0,1 @ F,0,0,1,0,12.555129,0,1 @ F,0,0,1,0,0,0,1 @ F,0,0,1,0,0,0,1 @ F,0,0,1,0,0,0,1 @ F,0,0,1,0,0,0,1 @ F,0,0,1,0,0,0,1 @ F,0,0,1,0,0,0,1 @ F,0,0,1,0,0,0,1 @ F,0,0,1,0,0,0,1 @ F,0,0,1,0,0,0,1 @ F,0,0,1,0,0,0,1 @ F,0,0,1,0,0,0,1 @ F,0,0,1,0,0,0,1 @ F,0,0,1,0,0,0,1 @ F,0,0,1,0,0,0,1 @ F,0,0,1,0,0,0,1 @ F,0,0,1,0,0,0,1 @ F,0,0,1,0,0,0,1 @ F,0,0,1,0,0,0,1 @ F,0,0,1,0,0,0,1 @ F,0,0,1,0,0,0,1 @ F,0,0,1,0,0,0,1 @ F,0,0,1,0,0,0,1 @ F,0,0,1,0,0,0,1 @ F,0,0,1,0,0,0,1 @ F,0,0,1,0,0,0,1 @ F,0,0,1,0,0,0,1 @ F,0,0,1,0,0,0,1 @ F,0,0,1,0,0,0,1 @ F,0,0,1,0,0,0,1 @ F,0,0,1,0,0,0,1 @ F,0,0,1,0,0,0,1 @ F,0,1,1,0,12.555129,0,1 @ F,0,1,1,0,12.555129,0,1 | F,0,0,1,0,0,0,1 @ F,0,0,1,0,0,0,1 @ F,0,0,1,0,0,0,1 @ F,0,0,1,0,0,0,1 @ F,0,0,1,0,0,0,1 @ F,0,0,1,0,0,0,1 @ F,0,0,1,0,0,0,1 @ F,0,0,1,0,0,0,1 | F,0,0,1,0,0,0,1 @ F,0,0,1,0,0,0,1 @ F,0,0,1,0,0,0,1 @ F,0,0,1,0,0,0,1 @ F,0,0,1,0,0,0,1 @ F,0,0,1,0,0,0,1 @ F,0,0,1,0,0,0,1 @ F,0,0,1,0,0,0,1 @ F,0,0,1,0,0,0,1 | F,0,0,1,0,0,0,1 @ F,0,0,1,0,0,0,1 @ F,0,0,1,0,0,0,1 @ F,0,0,1,0,0,0,1 @ F,0,0,1,0,0,0,1 | F,0,0,1,0,0,0,1 @ F,0,0,1,0,0,0,1 @ F,0,0,1,0,0,0,1 @ F,0,0,1,0,0,0,1 @ F,0,0,1,0,0,0,1 @ F,0,0,1,0,0,0,1 @ F,0,0,1,0,0,0,1 @ F,0,0,1,0,0,0,1 @ F,0,0,1,0,0,0,1 @ F,0,0,1,0,0,0,1 | F,0,0,1,0,0,0,1 @ F,0,0,1,0,0,0,1 @ F,0,0,1,0,0,0,1 @ F,0,0,1,0,0,0,1 @ F,0,0,1,0,0,0,1 @ F,0,0,1,0,0,0,1 @ F,0,0,1,0,0,0,1 @ F,0,0,1,0,0,0,1"
       radius="0"
       unit="px"
       method="auto"
       mode="F"
       chamfer_steps="1"
       flexible="false"
       use_knot_distance="true"
       apply_no_radius="true"
       apply_with_radius="true"
       only_selected="false"
       hide_knots="false" />
  </defs>
  <g
     inkscape:label="Camada 1"
     inkscape:groupmode="layer"
     id="layer1"
     transform="translate(-9.5249389,-44.1853)">
    <path
       style="fill:#454545"
       d="m 9890.4165,3976.0011 h 69.6101 a 12.555129,12.555129 45 0 1 12.5551,12.5551 v 23.8505 l -16.697,28.9165 -1.215,-0.6465 -1.216,-0.6464 h -28.165 c -25.7616,0 -28.2445,0.038 -29.0962,0.4418 -1.2094,0.5739 -1.9247,1.7705 -1.926,3.2215 0,1.4709 0.6651,2.6036 1.9067,3.241 0.9468,0.4861 1.9604,0.504 28.5305,0.504 16.627,0 27.515,0.096 27.461,0.2431 -0.05,0.1336 -1.874,3.3463 -4.056,7.1392 l -3.969,6.8961 h -23.358 c -25.2407,0 -24.3469,-0.044 -25.6943,1.417 -0.9206,0.9985 -1.0732,3.0131 -0.3206,4.231 1.144,1.851 -0.012,1.7648 23.6819,1.7648 h 21.325 v 7.1363 7.1363 l -21.509,0.074 c -20.2149,0.069 -21.5531,0.1024 -22.2377,0.551 -1.6814,1.102 -2.2554,3.4719 -1.243,5.1322 1.0675,1.7508 -0.1234,1.6665 23.5457,1.6665 h 21.444 v 3.7703 c 0,4.389 0.379,5.6561 1.892,6.4413 2.026,1.0517 1.955,1.0829 15.685,-6.9264 11.314,-6.5998 12.73,-7.499 13.296,-8.4446 0.349,-0.5821 0.922,-1.5346 1.273,-2.1167 l 0.64,-1.0583 v 14.4859 1.9309 a 12.555129,12.555129 135 0 1 -12.5551,12.5551 h -69.6101 a 12.55309,12.55309 45.004653 0 1 -12.5531,-12.5551 l 0.018,-110.3523 a 12.557168,12.557168 135.00465 0 1 12.5571,-12.5551 z m 64.2482,49.1427 c 2.282,-1.4952 2.258,-4.6691 -0.05,-6.2088 l -0.899,-0.6006 h -28.28 c -24.0137,0 -28.4173,0.057 -29.1915,0.381 -1.9734,0.8245 -2.6635,3.7952 -1.2672,5.4546 1.3838,1.6446 -0.2967,1.5625 30.6507,1.4988 26.556,-0.055 28.366,-0.087 29.034,-0.525 z m -0.18,-21.6786 c 2.233,-1.2231 2.529,-4.0863 0.612,-5.9231 l -0.805,-0.7712 -28.697,-0.07 c -31.7215,-0.077 -29.7045,-0.1819 -30.8264,1.6038 -0.8123,1.2928 -0.5868,3.3987 0.4779,4.4634 0.4411,0.4411 1.2045,0.8983 1.6965,1.016 0.4921,0.1178 13.456,0.1953 28.808,0.1722 25.718,-0.039 27.978,-0.077 28.734,-0.4915 z m -7.303,80.5016 v -7.4367 l 0.882,0.4694 c 2.338,1.2442 11.818,6.8121 11.815,6.9392 0,0.134 -11.893,7.1799 -12.448,7.3766 -0.151,0.054 -0.249,-2.82 -0.249,-7.3485 z m 10.14,-10.1612 -8.779,-5.0663 0.482,-0.7946 c 0.265,-0.4371 9.379,-16.2132 20.253,-35.0582 10.875,-18.8449 19.791,-34.2867 19.814,-34.3151 0.02,-0.028 3.993,2.2264 8.823,5.0106 l 8.7803,5.0623 -0.494,0.8102 c -0.272,0.4456 -9.3913,16.2287 -20.2653,35.0737 -10.874,18.8449 -19.785,34.2816 -19.803,34.3036 -0.02,0.022 -3.983,-2.2398 -8.811,-5.0262 z m 44.6263,-76.406 c -4.5823,-2.6374 -8.4963,-4.9494 -8.6973,-5.1377 -0.31,-0.2899 -0.279,-0.4827 0.2,-1.258 0.858,-1.3883 2.809,-3.0623 4.485,-3.8478 1.312,-0.6152 1.835,-0.7039 4.1483,-0.7039 2.303,0 2.833,0.089 4.101,0.6905 4.1,1.946 6.607,6.5526 5.836,10.7247 -0.237,1.2792 -1.404,4.3275 -1.658,4.3275 -0.05,0 -3.833,-2.1579 -8.415,-4.7953 z"
       id="path185"
       sodipodi:nodetypes="ccccccssssssscsssscccsssscssssscccccsscsssssssscsssssssscscssscsssscsssssssssssss"
       transform="translate(-9868.3165,-3931.8158)" />
  </g>
</svg>
