<?xml version="1.0" encoding="UTF-8" standalone="no"?>
<!-- Created with Inkscape (http://www.inkscape.org/) -->

<svg
   width="53.944mm"
   height="53.944mm"
   viewBox="0 0 53.944 53.944"
   version="1.1"
   id="svg1"
   inkscape:version="1.3 (0e150ed6c4, 2023-07-21)"
   sodipodi:docname="localIcon.svg"
   xmlns:inkscape="http://www.inkscape.org/namespaces/inkscape"
   xmlns:sodipodi="http://sodipodi.sourceforge.net/DTD/sodipodi-0.dtd"
   xmlns="http://www.w3.org/2000/svg"
   xmlns:svg="http://www.w3.org/2000/svg">
  <sodipodi:namedview
     id="namedview1"
     pagecolor="#ffffff"
     bordercolor="#000000"
     borderopacity="0.25"
     inkscape:showpageshadow="2"
     inkscape:pageopacity="0.0"
     inkscape:pagecheckerboard="0"
     inkscape:deskcolor="#d1d1d1"
     inkscape:document-units="mm"
     inkscape:zoom="1.4930696"
     inkscape:cx="103.4781"
     inkscape:cy="121.22677"
     inkscape:window-width="1920"
     inkscape:window-height="1009"
     inkscape:window-x="-8"
     inkscape:window-y="-8"
     inkscape:window-maximized="1"
     inkscape:current-layer="layer1" />
  <defs
     id="defs1" />
  <g
     inkscape:label="Camada 1"
     inkscape:groupmode="layer"
     id="layer1"
     transform="translate(-109.00965,-115.09375)">
    <path
       id="circle156-3"
       style="fill:#ffffff;stroke-width:1.00884;stroke-linecap:round;stroke-linejoin:round;paint-order:markers stroke fill"
       d="m 135.9816,115.09375 c -11.8282,0 -21.4169,9.58867 -21.4169,21.41695 0,11.82828 13.2028,32.52705 21.4169,32.52705 8.2142,0 21.417,-20.69877 21.417,-32.52705 0,-11.82828 -9.5886,-21.41704 -21.417,-21.41695 z m 0,13.3358 a 8.0812486,8.0812486 0 0 1 8.0814,8.08115 8.0812486,8.0812486 0 0 1 -8.0814,8.08133 8.0812486,8.0812486 0 0 1 -8.0812,-8.08133 8.0812486,8.0812486 0 0 1 8.0812,-8.08115 z" />
  </g>
</svg>
