<?xml version="1.0" encoding="UTF-8" standalone="no"?>
<!-- Created with Inkscape (http://www.inkscape.org/) -->

<svg
   width="37.557899mm"
   height="36.387901mm"
   viewBox="0 0 37.557899 36.387901"
   version="1.1"
   id="svg1"
   inkscape:version="1.3 (0e150ed6c4, 2023-07-21)"
   sodipodi:docname="logoOnibusBranco.svg"
   xmlns:inkscape="http://www.inkscape.org/namespaces/inkscape"
   xmlns:sodipodi="http://sodipodi.sourceforge.net/DTD/sodipodi-0.dtd"
   xmlns="http://www.w3.org/2000/svg"
   xmlns:svg="http://www.w3.org/2000/svg">
  <sodipodi:namedview
     id="namedview1"
     pagecolor="#ffffff"
     bordercolor="#000000"
     borderopacity="0.25"
     inkscape:showpageshadow="2"
     inkscape:pageopacity="0.0"
     inkscape:pagecheckerboard="0"
     inkscape:deskcolor="#d1d1d1"
     inkscape:document-units="mm"
     inkscape:zoom="0.51654111"
     inkscape:cx="-17.423589"
     inkscape:cy="104.54153"
     inkscape:window-width="1920"
     inkscape:window-height="1009"
     inkscape:window-x="-8"
     inkscape:window-y="-8"
     inkscape:window-maximized="1"
     inkscape:current-layer="layer1" />
  <defs
     id="defs1" />
  <g
     inkscape:label="Camada 1"
     inkscape:groupmode="layer"
     id="layer1"
     transform="translate(-76.78148,-129.49715)">
    <path
       id="rect35-3-9-1"
       style="fill:#ffffff;fill-opacity:1;stroke:none;stroke-width:0.434151;stroke-linecap:square;paint-order:markers stroke fill"
       d="m 104.94978,129.49715 h -18.7786 c -2.7656,0 -4.9921,2.2264 -4.9921,4.992 v 1.5706 h -2.1249 a 1.1362933,1.1362933 0 0 0 -1.1363,1.1364 v 0.046 1.948 a 1.1362933,1.1362933 0 0 0 -1.1364,1.1362 v 7.5831 a 1.1362933,1.1362933 0 0 0 1.1364,1.1364 h 1.1827 a 1.1362933,1.1362933 0 0 0 1.1363,-1.1364 v -7.5831 a 1.1362933,1.1362933 0 0 0 -1.1363,-1.1362 v -1.5064 a 0.44151998,0.44151998 0 0 1 0.4415,-0.4416 h 1.637 v 21.6761 c 0,1.9444 1.1029,3.6184 2.7175,4.4435 v 1.387 a 1.1362933,1.1362933 0 0 0 1.1362,1.1363 h 2.2039 a 1.1362933,1.1362933 0 0 0 1.1363,-1.1363 v -0.8384 h 14.3745 v 0.8384 a 1.1362933,1.1362933 0 0 0 1.1363,1.1363 h 2.2041 a 1.1362933,1.1362933 0 0 0 1.1362,-1.1363 v -1.3869 c 1.6148,-0.8251 2.7178,-2.4991 2.7178,-4.4436 v -21.6761 h 1.6369 a 0.44151998,0.44151998 0 0 1 0.4416,0.4415 v 1.5065 a 1.1362933,1.1362933 0 0 0 -1.1364,1.1362 v 7.583 a 1.1362933,1.1362933 0 0 0 1.1364,1.1364 h 1.1826 a 1.1362933,1.1362933 0 0 0 1.1364,-1.1364 v -7.583 a 1.1362933,1.1362933 0 0 0 -1.1364,-1.1362 v -1.948 -0.046 a 1.1362933,1.1362933 0 0 0 -1.1362,-1.1364 h -2.1249 v -1.5705 c 0,-2.7656 -2.2266,-4.9921 -4.9921,-4.9921 z m -15.1753,1.4115 h 11.5719 a 0.85192216,0.85192216 0 0 1 0.852,0.8518 v 1.0763 a 0.85192216,0.85192216 0 0 1 -0.852,0.852 h -11.5719 a 0.85192216,0.85192216 0 0 1 -0.8519,-0.852 v -1.0763 a 0.85192216,0.85192216 0 0 1 0.8519,-0.8518 z m -5.3981,4.0228 h 22.3681 a 1.0796047,1.0796047 0 0 1 1.0795,1.0797 v 12.4992 c 0,2.833 -5.4904,4.5478 -12.2636,4.5478 -6.7729,0 -12.2635,-1.7148 -12.2635,-4.5478 v -12.4992 a 1.0796047,1.0796047 0 0 1 1.0795,-1.0797 z m -0.3569,20.5264 a 1.5073255,1.5073255 0 0 1 1.5073,1.5073 1.5073255,1.5073255 0 0 1 -1.5073,1.5073 1.5073255,1.5073255 0 0 1 -1.5073,-1.5073 1.5073255,1.5073255 0 0 1 1.5073,-1.5073 z m 3.4321,0 a 1.5073255,1.5073255 0 0 1 1.5073,1.5073 1.5073255,1.5073255 0 0 1 -1.5073,1.5073 1.5073255,1.5073255 0 0 1 -1.5072,-1.5073 1.5073255,1.5073255 0 0 1 1.5072,-1.5073 z m 16.2177,0 a 1.5073255,1.5073255 0 0 1 1.5074,1.5073 1.5073255,1.5073255 0 0 1 -1.5074,1.5073 1.5073255,1.5073255 0 0 1 -1.5072,-1.5073 1.5073255,1.5073255 0 0 1 1.5072,-1.5073 z m 3.432,0 a 1.5073255,1.5073255 0 0 1 1.5074,1.5073 1.5073255,1.5073255 0 0 1 -1.5074,1.5073 1.5073255,1.5073255 0 0 1 -1.5072,-1.5073 1.5073255,1.5073255 0 0 1 1.5072,-1.5073 z m -15.8116,4.7905 h 8.5413 a 0.70351443,0.70351443 0 0 1 0.7034,0.7036 v 1.0368 a 0.70351443,0.70351443 0 0 1 -0.7034,0.7035 h -8.5413 a 0.70351443,0.70351443 0 0 1 -0.7033,-0.7035 v -1.0368 a 0.70351443,0.70351443 0 0 1 0.7033,-0.7036 z" />
  </g>
</svg>
