<?xml version="1.0" encoding="UTF-8" standalone="no"?>
<!-- Created with Inkscape (http://www.inkscape.org/) -->

<svg
   width="25mm"
   height="25mm"
   viewBox="0 0 25 24.999999"
   version="1.1"
   id="svg1"
   inkscape:version="1.3 (0e150ed6c4, 2023-07-21)"
   sodipodi:docname="perigoIcon.svg"
   xmlns:inkscape="http://www.inkscape.org/namespaces/inkscape"
   xmlns:sodipodi="http://sodipodi.sourceforge.net/DTD/sodipodi-0.dtd"
   xmlns="http://www.w3.org/2000/svg"
   xmlns:svg="http://www.w3.org/2000/svg">
  <sodipodi:namedview
     id="namedview1"
     pagecolor="#ffffff"
     bordercolor="#000000"
     borderopacity="0.25"
     inkscape:showpageshadow="2"
     inkscape:pageopacity="0.0"
     inkscape:pagecheckerboard="0"
     inkscape:deskcolor="#d1d1d1"
     inkscape:document-units="mm"
     inkscape:zoom="2.9861392"
     inkscape:cx="-12.892902"
     inkscape:cy="61.283144"
     inkscape:window-width="1920"
     inkscape:window-height="1009"
     inkscape:window-x="-8"
     inkscape:window-y="-8"
     inkscape:window-maximized="1"
     inkscape:current-layer="layer1" />
  <defs
     id="defs1" />
  <g
     inkscape:label="Camada 1"
     inkscape:groupmode="layer"
     id="layer1"
     transform="translate(-112.97705,-122.23753)">
    <path
       style="fill:#ff5555;stroke-width:0.184598"
       d="m 116.12404,145.69424 c -0.81659,-0.15201 -1.37586,-0.45167 -2.00568,-1.07547 -0.3891,-0.38433 -0.47626,-0.50386 -0.69623,-0.95231 -0.51154,-1.04103 -0.57691,-1.9121 -0.22308,-2.99079 0.10376,-0.30308 0.99402,-1.83022 4.51875,-7.71706 2.41658,-4.03658 4.46999,-7.45081 4.56234,-7.58725 1.42774,-2.09181 4.54573,-2.2379 6.17476,-0.28918 0.1681,0.19984 5.75869,9.45629 6.0347,9.99034 0.11309,0.21831 0.083,0.72622 -0.0519,0.91018 -0.20545,0.27528 -0.44202,0.42148 -0.72114,0.44451 -0.3258,0.027 -0.55511,-0.0446 -0.74915,-0.23501 -0.083,-0.0799 -1.44226,-2.30504 -3.02253,-4.94418 -1.58027,-2.63903 -2.96028,-4.89198 -3.06508,-5.00653 -0.11413,-0.12389 -0.34137,-0.28223 -0.5603,-0.39076 -0.34967,-0.17235 -0.39533,-0.18241 -0.83838,-0.18241 -0.4441,0 -0.48871,0.0104 -0.84254,0.18438 -0.24902,0.12296 -0.44098,0.26127 -0.5769,0.41515 -0.21063,0.23864 -8.68265,14.34349 -8.95347,14.90764 -0.13592,0.28368 -0.15253,0.3643 -0.15149,0.75703 0,0.39118 0.0208,0.47564 0.15461,0.76689 0.1961,0.41629 0.51672,0.7366 0.93384,0.93416 l 0.32684,0.15491 h 9.10911 9.1091 l 0.32685,-0.15491 c 0.41711,-0.19756 0.7367,-0.51787 0.93384,-0.93416 0.13696,-0.29125 0.1546,-0.37571 0.1546,-0.76689 0,-0.49846 -0.0623,-0.67122 -0.5188,-1.42795 -0.18573,-0.30692 -0.2594,-0.48238 -0.276,-0.65628 -0.0623,-0.62401 0.43787,-1.11521 1.06873,-1.05462 0.3974,0.0384 0.58002,0.20098 0.97431,0.86702 0.56445,0.9546 0.77197,1.67936 0.71387,2.49149 -0.0415,0.57421 -0.13904,0.92035 -0.42127,1.49373 -0.53021,1.08004 -1.5398,1.83656 -2.73615,2.05155 -0.53126,0.0955 -18.16945,0.0923 -18.68203,0 z m 8.92546,-5.08518 c -0.30817,-0.15699 -0.54786,-0.54038 -0.54786,-0.87439 0,-0.5189 0.44409,-0.95241 0.97535,-0.95241 0.94733,0 1.31983,1.15941 0.55926,1.73923 -0.14941,0.11424 -0.23864,0.14142 -0.50427,0.15377 -0.22931,0.0104 -0.36939,-0.0104 -0.48248,-0.0664 z m 0.0104,-3.48209 c -0.23657,-0.10905 -0.38495,-0.26365 -0.4856,-0.505 -0.0622,-0.15367 -0.0726,-0.4885 -0.0726,-2.22161 0,-1.8821 0.0104,-2.05601 0.0934,-2.23613 0.35486,-0.76721 1.41321,-0.76721 1.76807,0 0.083,0.18002 0.0934,0.35268 0.0934,2.19784 0,1.23029 -0.0207,2.07261 -0.0519,2.18416 -0.15045,0.53996 -0.81036,0.82582 -1.34058,0.58074 z"
       id="path195-7-8" />
  </g>
</svg>
