<?xml version="1.0" encoding="UTF-8" standalone="no"?>
<!-- Created with Inkscape (http://www.inkscape.org/) -->

<svg
   width="53.944mm"
   height="53.944mm"
   viewBox="0 0 53.944 53.944"
   version="1.1"
   id="svg1"
   inkscape:version="1.3 (0e150ed6c4, 2023-07-21)"
   sodipodi:docname="pessoaIcon.svg"
   xmlns:inkscape="http://www.inkscape.org/namespaces/inkscape"
   xmlns:sodipodi="http://sodipodi.sourceforge.net/DTD/sodipodi-0.dtd"
   xmlns="http://www.w3.org/2000/svg"
   xmlns:svg="http://www.w3.org/2000/svg">
  <sodipodi:namedview
     id="namedview1"
     pagecolor="#ffffff"
     bordercolor="#000000"
     borderopacity="0.25"
     inkscape:showpageshadow="2"
     inkscape:pageopacity="0.0"
     inkscape:pagecheckerboard="0"
     inkscape:deskcolor="#d1d1d1"
     inkscape:document-units="mm"
     inkscape:zoom="2.1115192"
     inkscape:cx="135.68429"
     inkscape:cy="75.774824"
     inkscape:window-width="1920"
     inkscape:window-height="1009"
     inkscape:window-x="-8"
     inkscape:window-y="-8"
     inkscape:window-maximized="1"
     inkscape:current-layer="layer1" />
  <defs
     id="defs1" />
  <g
     inkscape:label="Camada 1"
     inkscape:groupmode="layer"
     id="layer1"
     transform="translate(-98.033348,-94.191666)">
    <path
       id="path154-6"
       style="fill:#ffffff;fill-opacity:1;stroke:none;stroke-width:2.60768;stroke-linecap:round;stroke-linejoin:round;stroke-miterlimit:4;stroke-dasharray:none;stroke-dashoffset:0;stroke-opacity:1;paint-order:markers stroke fill"
       d="m 125.0055,94.19167 a 12.455741,12.455741 0 0 0 -12.456,12.456 12.455741,12.455741 0 0 0 12.456,12.4555 12.455741,12.455741 0 0 0 12.4557,-12.4555 12.455741,12.455741 0 0 0 -12.4557,-12.456 z m 0,28.1254 c -11.7574,0 -21.2889,5.985 -21.2889,17.7424 0,4.5525 9.5315,8.0762 21.2889,8.0762 11.7575,0 21.2886,-3.4277 21.2886,-8.0762 0,-11.7574 -9.5311,-17.7424 -21.2886,-17.7424 z" />
  </g>
</svg>
