<?xml version="1.0" encoding="UTF-8" standalone="no"?>
<!-- Created with Inkscape (http://www.inkscape.org/) -->

<svg
   width="94.878616mm"
   height="94.878616mm"
   viewBox="0 0 94.878616 94.878617"
   version="1.1"
   id="svg1"
   inkscape:version="1.3 (0e150ed6c4, 2023-07-21)"
   sodipodi:docname="mensagemIcon.svg"
   xmlns:inkscape="http://www.inkscape.org/namespaces/inkscape"
   xmlns:sodipodi="http://sodipodi.sourceforge.net/DTD/sodipodi-0.dtd"
   xmlns="http://www.w3.org/2000/svg"
   xmlns:svg="http://www.w3.org/2000/svg">
  <sodipodi:namedview
     id="namedview1"
     pagecolor="#ffffff"
     bordercolor="#000000"
     borderopacity="0.25"
     inkscape:showpageshadow="2"
     inkscape:pageopacity="0.0"
     inkscape:pagecheckerboard="0"
     inkscape:deskcolor="#d1d1d1"
     inkscape:document-units="mm"
     inkscape:zoom="0.74653479"
     inkscape:cx="259.19757"
     inkscape:cy="91.087516"
     inkscape:window-width="1920"
     inkscape:window-height="1009"
     inkscape:window-x="-8"
     inkscape:window-y="-8"
     inkscape:window-maximized="1"
     inkscape:current-layer="layer1" />
  <defs
     id="defs1">
    <filter
       inkscape:collect="always"
       style="color-interpolation-filters:sRGB"
       id="filter114-4"
       x="-0.29737102"
       y="-0.34329533"
       width="1.594742"
       height="1.6865907">
      <feGaussianBlur
         inkscape:collect="always"
         stdDeviation="7.4556535"
         id="feGaussianBlur114-6" />
    </filter>
  </defs>
  <g
     inkscape:label="Camada 1"
     inkscape:groupmode="layer"
     id="layer1"
     transform="translate(45.772921,-127.79369)">
    <path
       id="rect110-0-8-5"
       style="font-variation-settings:normal;opacity:0.446319;mix-blend-mode:normal;vector-effect:none;fill:#3073db;fill-opacity:1;stroke:none;stroke-width:1.216;stroke-linecap:round;stroke-linejoin:round;stroke-miterlimit:4;stroke-dasharray:none;stroke-dashoffset:0;stroke-opacity:1;-inkscape-stroke:none;paint-order:markers stroke fill;filter:url(#filter114-4)"
       d="m 80.395609,928.3449 a 5.0044996,5.0044996 0 0 0 -5.004346,5.00487 v 32.69981 12.09797 a 2.320239,2.320239 0 0 0 3.819405,1.77095 l 6.650757,-5.63066 a 13.656145,13.656145 0 0 1 8.823751,-3.23391 h 35.874284 a 5.0044996,5.0044996 0 0 0 5.00434,-5.00435 v -32.69981 a 5.0044996,5.0044996 0 0 0 -5.00434,-5.00487 z m 10.730611,16.35456 a 5,5 0 0 1 4.999696,5.00021 5,5 0 0 1 -4.999696,4.9997 5,5 0 0 1 -5.000212,-4.9997 5,5 0 0 1 5.000212,-5.00021 z m 14.35156,0 a 5,5 0 0 1 4.9997,5.00021 5,5 0 0 1 -4.9997,4.9997 5,5 0 0 1 -5.00021,-4.9997 5,5 0 0 1 5.00021,-5.00021 z m 14.35158,0 a 5,5 0 0 1 4.9997,5.00021 5,5 0 0 1 -4.9997,4.9997 5,5 0 0 1 -5.00021,-4.9997 5,5 0 0 1 5.00021,-5.00021 z"
       transform="matrix(0.90654206,0,0,0.90654206,-93.953428,-687.09836)" />
    <path
       id="rect110-0-4"
       style="font-variation-settings:normal;vector-effect:none;fill:#ffffff;fill-opacity:1;stroke:none;stroke-width:1.10236;stroke-linecap:round;stroke-linejoin:round;stroke-miterlimit:4;stroke-dasharray:none;stroke-dashoffset:0;stroke-opacity:1;-inkscape-stroke:none;paint-order:markers stroke fill"
       d="m -19.152579,151.60705 a 4.5367894,4.5367894 0 0 0 -4.53665,4.53712 v 29.64376 10.96731 a 2.1033942,2.1033942 0 0 0 3.462451,1.60544 l 6.029191,-5.10443 a 12.37987,12.37987 0 0 1 7.9991007,-2.93167 H 26.323079 a 4.5367894,4.5367894 0 0 0 4.53664,-4.53665 v -29.64376 a 4.5367894,4.5367894 0 0 0 -4.53664,-4.53712 z m 9.7277497,14.82609 a 4.5327103,4.5327103 0 0 1 4.532434,4.5329 4.5327103,4.5327103 0 0 1 -4.532434,4.53244 4.5327103,4.5327103 0 0 1 -4.5329027,-4.53244 4.5327103,4.5327103 0 0 1 4.5329027,-4.5329 z m 13.010308,0 a 4.5327103,4.5327103 0 0 1 4.53244,4.5329 4.5327103,4.5327103 0 0 1 -4.53244,4.53244 4.5327103,4.5327103 0 0 1 -4.5329,-4.53244 4.5327103,4.5327103 0 0 1 4.5329,-4.5329 z m 13.0103103,0 a 4.5327103,4.5327103 0 0 1 4.53244,4.5329 4.5327103,4.5327103 0 0 1 -4.53244,4.53244 4.5327103,4.5327103 0 0 1 -4.5329,-4.53244 4.5327103,4.5327103 0 0 1 4.5329,-4.5329 z" />
  </g>
</svg>
